<?xml version="1.0" encoding="UTF-8" standalone="no"?>
<svg
   id="svg"
   version="1.1"
   viewBox="0 0 1024 1024"
   style="display: block;"
   sodipodi:docname="export-2026-03-22 031812.svg"
   inkscape:version="1.2.2 (b0a8486541, 2022-12-01)"
   xmlns:inkscape="http://www.inkscape.org/namespaces/inkscape"
   xmlns:sodipodi="http://sodipodi.sourceforge.net/DTD/sodipodi-0.dtd"
   xmlns="http://www.w3.org/2000/svg"
   xmlns:svg="http://www.w3.org/2000/svg">
  <defs
     id="defs118" />
  <sodipodi:namedview
     id="namedview116"
     pagecolor="#ffffff"
     bordercolor="#000000"
     borderopacity="0.25"
     inkscape:showpageshadow="2"
     inkscape:pageopacity="0.0"
     inkscape:pagecheckerboard="0"
     inkscape:deskcolor="#d1d1d1"
     showgrid="false"
     inkscape:zoom="0.82226562"
     inkscape:cx="513.82423"
     inkscape:cy="513.82423"
     inkscape:window-width="1920"
     inkscape:window-height="1011"
     inkscape:window-x="0"
     inkscape:window-y="32"
     inkscape:window-maximized="1"
     inkscape:current-layer="svg" />
  <path
     d="M0 0 C4.98363149 0.00893276 9.96723949 0.00037272 14.95087087 -0.00586212 C24.68505578 -0.01529878 34.419166 -0.00879611 44.15334532 0.00340082 C55.50732162 0.01709221 66.86128058 0.01537678 78.21526303 0.01326749 C98.48044447 0.01008529 118.74559064 0.02170244 139.01076162 0.04133332 C158.64391056 0.06034675 178.27701819 0.0674166 197.91017568 0.06184113 C219.33335379 0.05577525 240.7565138 0.05597426 262.17969042 0.06732696 C264.46632401 0.06853416 266.7529576 0.06974014 269.03959119 0.07094491 C270.16443027 0.07154844 271.28926934 0.07215198 272.44819445 0.07277381 C280.35026577 0.07664253 288.25233033 0.07626345 296.15440214 0.07435906 C305.78892029 0.07223103 315.4234024 0.07750746 325.05791042 0.09197261 C329.96727549 0.09918601 334.87658824 0.10331982 339.78595769 0.09872925 C344.28931087 0.0946209 348.7925565 0.09990797 353.29589345 0.11235533 C354.91532185 0.11525727 356.53476056 0.11488894 358.15418617 0.11071225 C368.65197681 0.08611814 378.74209576 0.84385004 389.13454092 2.37751496 C390.5344084 2.57897434 391.93429501 2.78030091 393.33420104 2.98149234 C415.9230054 6.29646454 438.4320337 17.84855999 454.13454092 34.37751496 C454.71461904 34.9021634 455.29469717 35.42681183 455.89235342 35.96735871 C477.77443371 56.26191553 488.02048057 90.65767641 489.36371148 119.60730684 C489.75255979 130.47410851 489.67755454 141.35402167 489.64278054 152.22588539 C489.63152678 157.13727401 489.64366004 162.04861824 489.65262258 166.96000397 C489.66645884 176.54527435 489.65907134 186.13041179 489.643947 195.71567569 C489.62697415 206.90367379 489.63031114 218.09163982 489.63404108 229.27964684 C489.63990169 249.25297003 489.62581719 269.22622993 489.60109365 289.19953644 C489.5771621 308.53549806 489.570098 327.87137517 489.58058584 347.20734894 C489.59201861 368.32296463 489.59389725 389.43854137 489.57948774 410.5541566 C489.57796207 412.80934453 489.57644172 415.06453246 489.57492673 417.31972039 C489.57416892 418.42899611 489.57341111 419.53827183 489.57263033 420.68116197 C489.56790698 428.46167945 489.56972491 436.24217942 489.57399213 444.02269661 C489.57894014 453.51319123 489.57283938 463.00360629 489.55309784 472.49408279 C489.54328902 477.32703328 489.53805072 482.15986316 489.54599035 486.99281991 C489.60052633 524.0747093 489.60052633 524.0747093 486.13454092 540.37751496 C485.91181225 541.48451154 485.68908359 542.59150813 485.45960557 543.73205006 C479.28732708 572.79715296 462.83836436 600.78623312 438.00954092 617.62751496 C424.07592393 626.64894155 409.26112377 632.64267104 393.13454092 636.37751496 C392.21543935 636.59923371 391.29633779 636.82095246 390.34938467 637.04938996 C377.16138056 639.95559454 363.91465 640.67406775 350.46994436 640.63148224 C348.85417886 640.63379311 347.23841441 640.6369738 345.62265211 640.64093673 C341.22989844 640.64920789 336.83723279 640.64519478 332.44447899 640.6389643 C327.68834377 640.63440884 322.9322229 640.64143892 318.1760906 640.64692414 C308.87604341 640.65578799 299.57602863 640.65390928 290.27598021 640.64809886 C282.71027322 640.64356914 275.14457527 640.64297512 267.57886732 640.64514649 C266.49915673 640.64545296 265.41944614 640.64575942 264.30701705 640.64607517 C262.11305795 640.64671468 259.91909886 640.6473631 257.72513976 640.64802036 C237.18082899 640.6537152 216.6365361 640.64717976 196.09222826 640.63641962 C178.50158718 640.62749125 160.91097252 640.62903192 143.32033193 640.63825715 C122.85374766 640.64898573 102.38717906 640.65315929 81.92059237 640.64703262 C79.73349269 640.64639558 77.54639302 640.64576684 75.35929334 640.64514649 C73.74550864 640.64468366 73.74550864 640.64468366 72.09912223 640.64421149 C64.55362086 640.64249182 57.0081295 640.64538399 49.46262968 640.6501056 C40.25084066 640.65574354 31.03908569 640.65413746 21.82730053 640.64354411 C17.13607644 640.63832535 12.44490889 640.63616492 7.75368536 640.64284241 C-10.21680736 640.66633062 -28.00535582 640.65353058 -45.86545908 638.37751496 C-47.05165182 638.25329289 -48.23784455 638.12907082 -49.45998251 638.00108445 C-77.20082355 635.03106248 -104.89009531 619.46900265 -122.86545908 598.37751496 C-148.69627046 566.09807055 -151.49894903 526.91055256 -151.37369871 487.30703819 C-151.36245537 482.34587016 -151.37457492 477.38474638 -151.38354075 472.42358124 C-151.39738421 462.73857828 -151.38998391 453.05370681 -151.37486517 443.36871025 C-151.35789989 432.0655033 -151.3612284 420.76232814 -151.36495925 409.45911238 C-151.37082126 389.28003139 -151.35673021 369.10101304 -151.33201182 348.92194855 C-151.30808321 329.38514083 -151.30101469 309.84841673 -151.31150401 290.31159699 C-151.32293645 268.98027682 -151.32481557 247.6489952 -151.31040591 226.31767547 C-151.30888024 224.03944234 -151.30735988 221.76120921 -151.3058449 219.48297608 C-151.30508709 218.36234893 -151.30432927 217.24172177 -151.3035485 216.08713622 C-151.29882463 208.22597903 -151.30064348 200.36483917 -151.3049103 192.50368226 C-151.30985805 182.91434967 -151.30375881 173.32509581 -151.28401601 163.73578116 C-151.27420608 158.85220635 -151.26897011 153.96875092 -151.27690852 149.08516991 C-151.31821402 120.58003913 -151.04608026 92.39982705 -137.86545908 66.37751496 C-137.35241221 65.27021027 -136.83936533 64.16290558 -136.31077158 63.02204621 C-123.36801179 35.67524729 -100.17482294 17.66556678 -72.24436533 7.17438996 C-48.78104471 -0.68524454 -24.39980638 -0.0600083 0 0 Z "
     transform="translate(342.8654590845108,191.62248504161835)"
     style="fill: #3A8E27;"
     id="path91" />
  <path
     d="M0 0 C0.80888672 0.19867676 1.61777344 0.39735352 2.45117188 0.60205078 C25.39159657 6.43325165 43.88099601 17.99954372 62 33 C62.67804688 33.55945313 63.35609375 34.11890625 64.0546875 34.6953125 C74.56644668 44.30175271 81.67037572 57.99683291 87 71 C87.47179687 72.13953125 87.94359375 73.2790625 88.4296875 74.453125 C94.89427207 91.20749211 97.91486625 111.27718867 94 129 C90.30916506 128.35020512 87.76003348 126.69306252 84.625 124.6875 C67.89406734 114.7144716 45.48579022 113.5911856 26.5625 117 C9.77403186 121.33904853 -5.40326021 131.49330032 -15 146 C-20.15909991 154.8337908 -25 164.55269351 -25 175 C-24.58041016 174.07380859 -24.58041016 174.07380859 -24.15234375 173.12890625 C-17.8550817 159.82568706 -8.28676843 148.69847032 5 142 C5.66 142.33 6.32 142.66 7 143 C6.72285156 143.6290625 6.44570313 144.258125 6.16015625 144.90625 C5.79792969 145.7621875 5.43570312 146.618125 5.0625 147.5 C4.70285156 148.3353125 4.34320312 149.170625 3.97265625 150.03125 C1.9783343 156.11833707 1.83262412 162.52758761 1.76171875 168.890625 C1.74716393 169.99198036 1.74716393 169.99198036 1.73231506 171.11558533 C1.70742649 173.49377997 1.6947796 175.87168804 1.6875 178.25 C1.68488159 179.06691315 1.68226318 179.88382629 1.67956543 180.72549438 C1.67195465 203.01283769 5.28933635 224.31879796 10.46630859 245.94824219 C18.26909977 279.63942917 13.88408535 317.19117089 -3.74072266 346.98632812 C-16.15397733 366.83598391 -34.35340411 380.63774535 -56 389 C-56.84820313 389.36609375 -57.69640625 389.7321875 -58.5703125 390.109375 C-81.89667231 400.11738416 -107.83275732 400.16855235 -132.79882812 400.11352539 C-134.62382506 400.11324254 -136.4488221 400.11340315 -138.27381897 400.1139679 C-143.17561794 400.11425207 -148.07739189 400.10841738 -152.9791851 400.10139394 C-158.12141667 400.09509654 -163.26364896 400.09455159 -168.40588379 400.09336853 C-178.11995624 400.0902739 -187.83401728 400.08208596 -197.54808474 400.07201904 C-208.61716744 400.06079955 -219.68625073 400.05533281 -230.75533772 400.05032361 C-253.50356477 400.03990157 -276.25178174 400.02233869 -299 400 C-291.90463961 385.34082548 -277.5231757 379.20642148 -263 374 C-263.37656738 373.49098145 -263.75313477 372.98196289 -264.14111328 372.45751953 C-275.69741996 356.10151526 -280.53303164 335.77852121 -278 316 C-277.15674116 311.35977239 -275.93836886 307.29339644 -274 303 C-273.57589844 302.05253906 -273.15179688 301.10507812 -272.71484375 300.12890625 C-269.20755248 293.08501488 -264.53052527 287.54905299 -259 282 C-258.32324219 281.30003906 -257.64648438 280.60007812 -256.94921875 279.87890625 C-247.18154648 270.44234151 -233.47330784 263.72734716 -220 262 C-239.44369099 261.3295279 -256.49592053 266.83608883 -271 280 C-283.14298667 292.50788443 -287.47077289 307.93176492 -287.28540039 324.99438477 C-286.83723069 342.47300294 -280.98304523 356.73145718 -273 372 C-274.10794922 372.4021875 -274.10794922 372.4021875 -275.23828125 372.8125 C-289.39121184 378.27945159 -299.25743485 386.23400548 -306 400 C-310.41080354 400.02490464 -314.82156871 400.04295604 -319.23242188 400.05493164 C-320.72982497 400.05992943 -322.22722327 400.0667299 -323.72460938 400.07543945 C-325.88933505 400.08770623 -328.05399565 400.09327397 -330.21875 400.09765625 C-332.1668457 400.10551147 -332.1668457 400.10551147 -334.15429688 400.11352539 C-338.18086673 399.9946608 -342.01415096 399.56026769 -346 399 C-347.00606525 395.83318099 -347.19408562 394.432862 -345.8125 391.3515625 C-337.9105404 379.46456294 -328.15131456 369.93245923 -314 366 C-313.28972656 365.79632812 -312.57945312 365.59265625 -311.84765625 365.3828125 C-303.98272529 363.47219699 -296.03380919 363.82058491 -288 364 C-288.27972656 363.44054687 -288.55945313 362.88109375 -288.84765625 362.3046875 C-289.71250035 360.57499929 -290.57559546 358.84443612 -291.4375 357.11328125 C-292.529344 354.93778208 -293.63462481 352.76899785 -294.75 350.60546875 C-303.46740522 333.56519604 -307.23458058 317.68872046 -307.3125 298.5625 C-307.31797852 297.5612207 -307.32345703 296.55994141 -307.32910156 295.52832031 C-307.2578084 288.38671261 -307.2578084 288.38671261 -305 285 C-302.1796875 284.70703125 -302.1796875 284.70703125 -298.875 284.8125 C-297.77929688 284.83957031 -296.68359375 284.86664062 -295.5546875 284.89453125 C-294.29011719 284.94673828 -294.29011719 284.94673828 -293 285 C-293.84425537 284.62415771 -293.84425537 284.62415771 -294.70556641 284.24072266 C-313.97695485 275.58096893 -330.14575783 265.28328143 -344.24609375 249.3828125 C-351.10292949 241.50080661 -351.10292949 241.50080661 -360.9375 238.875 C-362.54044922 238.91367187 -362.54044922 238.91367187 -364.17578125 238.953125 C-368.54981465 239.02572306 -371.33365662 237.37322756 -374.62109375 234.6640625 C-376.82103352 232.00917767 -376.47620909 229.66859641 -376.3359375 226.33984375 C-375.62472392 221.38615846 -373.65454215 218.36746674 -369.90625 215.26953125 C-362.47972333 210.05858504 -355.80355924 209.05337177 -346.88671875 210.5078125 C-335.6450209 213.03873027 -326.03238423 218.34256819 -316.03027344 223.94018555 C-313.89489921 225.12318516 -313.89489921 225.12318516 -311 226 C-313.97 222.7 -316.94 219.4 -320 216 C-319.154375 214.906875 -318.30875 213.81375 -317.4375 212.6875 C-310.79423378 203.73011024 -306.03768664 196.1199471 -304 185 C-304.76183594 185.27714844 -305.52367187 185.55429687 -306.30859375 185.83984375 C-307.34113281 186.20207031 -308.37367188 186.56429687 -309.4375 186.9375 C-310.95150391 187.47697266 -310.95150391 187.47697266 -312.49609375 188.02734375 C-333.44198987 193.84175638 -357.7297294 191.10055525 -376.7890625 181.00390625 C-382.73807348 177.29120232 -388.09469223 172.85796166 -392 167 C-391.875 164.5625 -391.875 164.5625 -391 162 C-390.12601562 161.21882813 -390.12601562 161.21882813 -389.234375 160.421875 C-386.02652221 156.94483177 -384.37380998 152.9433775 -382.375 148.6875 C-368.24459255 119.58154615 -348.23932432 98.02415736 -318 86 C-317.01 85.67 -316.02 85.34 -315 85 C-313.73459978 82.28761678 -313.73459978 82.28761678 -312.6875 79 C-309.59337519 70.55137178 -305.72240315 62.98738537 -298 58 C-294.75 57.5 -294.75 57.5 -292 58 C-289.27968028 62.08047958 -289.48263281 65.20872991 -290 70 C-290.80490367 73.08468863 -291.82377426 76.03843161 -293 79 C-292.42894531 78.38253906 -291.85789062 77.76507813 -291.26953125 77.12890625 C-282.0936583 67.54456837 -269.94484316 56.30852042 -256 55.5625 C-255.01 55.706875 -254.02 55.85125 -253 56 C-249.58229675 61.12655488 -249.81779175 66.29577667 -249.8125 72.3125 C-249.80025391 73.03373047 -249.78800781 73.75496094 -249.77539062 74.49804688 C-249.75274126 82.91606006 -251.95103736 89.4210205 -256.171875 96.703125 C-257.24356998 98.95507521 -257.24356998 98.95507521 -256.35546875 101.09765625 C-254.91847084 103.11442277 -253.42502204 104.55730919 -251.5625 106.1875 C-242.03909037 115.55647596 -235.93121997 127.90866265 -229.9375 139.6875 C-218.3776046 162.33141492 -204.06323146 177.73584297 -181.07421875 188.98046875 C-163.64459324 197.54979556 -147.88350278 208.42547725 -134 222 C-133.21367188 222.73605469 -132.42734375 223.47210937 -131.6171875 224.23046875 C-111.97255311 243.0195006 -99.7700711 267.97323683 -93 294 C-92.67644531 295.24265625 -92.35289062 296.4853125 -92.01953125 297.765625 C-89.27523061 310.08276776 -89.70720954 322.44754738 -90 335 C-87.57810779 326.02210192 -85.30968316 317.34004408 -85 308 C-84.93683594 306.73929688 -84.87367188 305.47859375 -84.80859375 304.1796875 C-83.55220192 269.11978615 -103.15020565 240.22559791 -125.04223633 214.66845703 C-140.6360648 196.43435842 -154.20455325 176.23994422 -161 153 C-161.29414795 151.99815674 -161.29414795 151.99815674 -161.59423828 150.97607422 C-164.83718719 139.37517359 -165.37152506 127.8494874 -165.375 115.875 C-165.37690338 115.16258148 -165.37880676 114.45016296 -165.38076782 113.71615601 C-165.37764512 103.39712559 -164.74880832 93.79670573 -160.828125 84.16796875 C-159.94456847 81.94396993 -159.94456847 81.94396993 -159.234375 79.36328125 C-150.43189138 49.39482566 -123.66453006 24.78947899 -97.11254883 10.07202148 C-89.69199654 6.14675403 -82.05752963 3.31515639 -74 1 C-73.29584961 0.78972168 -72.59169922 0.57944336 -71.86621094 0.36279297 C-49.89983171 -5.9225575 -22.07488549 -5.50882232 0 0 Z "
     transform="translate(678,298)"
     style="fill: #FDFDFD;"
     id="path93" />
  <path
     d="M0 0 C5.16458757 2.44638358 8.56763866 6.07322556 11.08203125 11.2109375 C13.47904292 18.49377296 13.12387342 27.63046859 10 34.625 C7.22750681 39.25869335 4.18694242 42.30508778 -1 44 C-6.66335081 44.82606037 -11.30352755 44.81794208 -16.5 42.3125 C-21.67229162 37.52813025 -24.69043742 33.41598711 -25.3359375 26.29296875 C-25.65916714 11.62509203 -25.65916714 11.62509203 -21 6 C-14.56193009 -0.5037645 -8.89665244 -0.780218 0 0 Z "
     transform="translate(776,720)"
     style="fill: #F6FAF5;"
     id="path95" />
  <path
     d="M0 0 C3.3 0 6.6 0 10 0 C10.33 5.28 10.66 10.56 11 16 C11.77085937 15.01257813 12.54171875 14.02515625 13.3359375 13.0078125 C14.34888812 11.71348671 15.36191281 10.41921889 16.375 9.125 C16.88289062 8.47402344 17.39078125 7.82304688 17.9140625 7.15234375 C18.40390625 6.52714844 18.89375 5.90195312 19.3984375 5.2578125 C19.84880371 4.6817627 20.29916992 4.10571289 20.76318359 3.51220703 C22 2 22 2 24 0 C26.6015625 -0.1953125 26.6015625 -0.1953125 29.625 -0.125 C31.12933594 -0.09792969 31.12933594 -0.09792969 32.6640625 -0.0703125 C33.43492187 -0.04710937 34.20578125 -0.02390625 35 0 C35 2 35 2 32.83203125 4.23046875 C31.89746094 5.14441406 30.96289062 6.05835938 30 7 C28.17906304 9.06328951 26.43252163 11.18486622 24.6875 13.3125 C24.23310547 13.86228516 23.77871094 14.41207031 23.31054688 14.97851562 C22.20474148 16.31712216 21.10204061 17.65829231 20 19 C21.3016079 22.63747935 22.85113319 25.37604879 25.2578125 28.390625 C25.88300781 29.18210937 26.50820313 29.97359375 27.15234375 30.7890625 C28.12880859 32.00722656 28.12880859 32.00722656 29.125 33.25 C30.42128815 34.87860469 31.71567125 36.50872819 33.0078125 38.140625 C33.58160645 38.85766602 34.15540039 39.57470703 34.74658203 40.31347656 C36 42 36 42 36 43 C31.62133962 44.20709016 28.35405502 44.39041094 24 43 C18.70894284 38.21325329 14.86793611 31.93915351 11 26 C10.67 31.61 10.34 37.22 10 43 C6.7 43 3.4 43 0 43 C0 28.81 0 14.62 0 0 Z "
     transform="translate(606,720)"
     style="fill: #F6FAF5;"
     id="path97" />
  <path
     d="M0 0 C1.13888672 0.0009668 1.13888672 0.0009668 2.30078125 0.00195312 C5.86241141 0.03002201 9.07420841 0.23032161 12.5 1.1875 C12.625 6.9375 12.625 6.9375 11.5 9.1875 C6.22 9.1875 0.94 9.1875 -4.5 9.1875 C-4.83 10.8375 -5.16 12.4875 -5.5 14.1875 C-4.40300781 14.63480469 -3.30601562 15.08210937 -2.17578125 15.54296875 C-0.72108439 16.15300292 0.73332784 16.76371614 2.1875 17.375 C2.90873047 17.66697266 3.62996094 17.95894531 4.37304688 18.25976562 C8.97638513 20.2146079 12.27562132 22.21807071 15.5 26.1875 C16.25563909 31.38251871 15.32659979 34.80139688 12.5 39.1875 C7.24337633 44.17455323 3.21739288 44.33960882 -3.875 44.375 C-5.16148437 44.38917969 -6.44796875 44.40335938 -7.7734375 44.41796875 C-11.38452711 44.19464141 -14.14761667 43.50043032 -17.5 42.1875 C-17.17 39.5475 -16.84 36.9075 -16.5 34.1875 C-15.571875 34.3525 -14.64375 34.5175 -13.6875 34.6875 C-4.88631886 36.01715922 -4.88631886 36.01715922 3.5 34.1875 C3.5 32.5375 3.5 30.8875 3.5 29.1875 C-0.55609329 27.08702312 -4.39185952 25.1805629 -8.75 23.8125 C-11.75956024 22.69872574 -12.66368795 22.01562765 -15 19.5625 C-16.90717378 15.27135899 -17.3530708 11.81114373 -16.5 7.1875 C-12.36550742 0.24745889 -7.60625538 -0.12268154 0 0 Z "
     transform="translate(585.5,719.8125)"
     style="fill: #F5F9F4;"
     id="path99" />
  <path
     d="M0 0 C2.77044891 1.71889166 4.73188167 3.01063834 6.203125 5.953125 C6.57567074 10.88935609 6.40942754 14.05975763 3.203125 17.953125 C1.015625 18.765625 1.015625 18.765625 -0.796875 18.953125 C-0.796875 19.613125 -0.796875 20.273125 -0.796875 20.953125 C-0.03375 21.035625 0.729375 21.118125 1.515625 21.203125 C4.203125 21.953125 4.203125 21.953125 6.015625 23.515625 C7.71799355 27.00996044 7.84143333 30.18855656 7.203125 33.953125 C5.23032381 38.13546353 3.03396366 40.85698536 -1.40625 42.48828125 C-9.19439774 44.00264331 -17.39027769 43.81761795 -24.796875 40.953125 C-24.136875 38.643125 -23.476875 36.333125 -22.796875 33.953125 C-21.67667969 33.97632813 -20.55648437 33.99953125 -19.40234375 34.0234375 C-17.92969416 34.04219737 -16.45703737 34.06039734 -14.984375 34.078125 C-13.87739258 34.10326172 -13.87739258 34.10326172 -12.74804688 34.12890625 C-8.88441074 34.16387128 -7.08783832 34.14710055 -3.796875 31.953125 C-3.296875 29.453125 -3.296875 29.453125 -3.796875 26.953125 C-6.83212986 24.92962176 -7.99113702 24.63188482 -11.484375 24.328125 C-12.29261719 24.25335937 -13.10085938 24.17859375 -13.93359375 24.1015625 C-14.54847656 24.05257812 -15.16335938 24.00359375 -15.796875 23.953125 C-15.796875 21.313125 -15.796875 18.673125 -15.796875 15.953125 C-15.17039062 15.89253906 -14.54390625 15.83195313 -13.8984375 15.76953125 C-12.67253906 15.64384766 -12.67253906 15.64384766 -11.421875 15.515625 C-10.60976563 15.43441406 -9.79765625 15.35320313 -8.9609375 15.26953125 C-6.75414695 15.06222386 -6.75414695 15.06222386 -4.796875 13.953125 C-4.754154 12.28700595 -4.75623668 10.61929615 -4.796875 8.953125 C-5.98540355 7.53537662 -5.98540355 7.53537662 -9.39453125 7.85546875 C-10.88284367 7.8621428 -12.37113932 7.87410317 -13.859375 7.890625 C-14.61798828 7.89513672 -15.37660156 7.89964844 -16.15820312 7.90429688 C-18.03779371 7.9161182 -19.91734399 7.93405422 -21.796875 7.953125 C-21.796875 5.313125 -21.796875 2.673125 -21.796875 -0.046875 C-15.38520193 -2.18409936 -6.39631841 -2.3941527 0 0 Z "
     transform="translate(738.796875,721.046875)"
     style="fill: #F5F9F4;"
     id="path101" />
  <path
     d="M0 0 C3.95452979 -0.9313472 7.08186436 -1.1819793 11 0 C15.61857517 4.41063369 19.00838589 11.02515766 21 17 C21.29769287 16.52054932 21.59538574 16.04109863 21.90209961 15.54711914 C23.24583407 13.38470639 24.59163874 11.22358963 25.9375 9.0625 C26.40607422 8.30775391 26.87464844 7.55300781 27.35742188 6.77539062 C27.80537109 6.05673828 28.25332031 5.33808594 28.71484375 4.59765625 C29.33540649 3.60004272 29.33540649 3.60004272 29.96850586 2.58227539 C31 1 31 1 32 0 C33.68608966 -0.07205511 35.37500659 -0.08386068 37.0625 -0.0625 C37.98160156 -0.05347656 38.90070312 -0.04445313 39.84765625 -0.03515625 C40.55792969 -0.02355469 41.26820313 -0.01195312 42 0 C40.72577792 3.50707892 39.24466776 6.26040145 36.99609375 9.23046875 C28.76220857 20.59597148 24.95988012 28.88165145 26 43 C22.7 43 19.4 43 16 43 C16.04382813 41.97003906 16.08765625 40.94007813 16.1328125 39.87890625 C16.27501774 25.58727927 10.40603553 16.38074547 2.171875 5.1328125 C0 2 0 2 0 0 Z "
     transform="translate(642,720)"
     style="fill: #F4F9F3;"
     id="path103" />
  <path
     d="M0 0 C0 13.86 0 27.72 0 42 C-2.97 42 -5.94 42 -9 42 C-9 31.44 -9 20.88 -9 10 C-11.31 11.32 -13.62 12.64 -16 14 C-16.99 14 -17.98 14 -19 14 C-19.77320517 9.01712226 -19.77320517 9.01712226 -19 6 C-13.2941765 -0.44771544 -8.78158023 0 0 0 Z "
     transform="translate(707,721)"
     style="fill: #FAFCF9;"
     id="path105" />
  <path
     d="M0 0 C2.92589817 2.11660719 3.73489431 2.77257483 5 6 C5.91624018 13.38227801 5.85581559 19.49803646 2 26 C0 28 0 28 -3.3125 28.5 C-7 28 -7 28 -9.9375 25.9375 C-13.73236496 20.71486406 -12.77863798 13.07337624 -12 7 C-9.27945165 0.41022733 -7.2097645 -0.85539579 0 0 Z "
     transform="translate(773,728)"
     style="fill: #429030;"
     id="path107" />
  <path
     d="M0 0 C-0.30238669 9.23791351 -1.93348885 17.28540319 -5 26 C-5.93714922 22.88248002 -6.05686895 20.25850091 -5.87890625 17.015625 C-5.83056641 16.08105469 -5.78222656 15.14648438 -5.73242188 14.18359375 C-5.67634766 13.21550781 -5.62027344 12.24742187 -5.5625 11.25 C-5.51029297 10.26644531 -5.45808594 9.28289063 -5.40429688 8.26953125 C-5.27488563 5.84601151 -5.13993095 3.42293136 -5 1 C-1.125 0 -1.125 0 0 0 Z "
     transform="translate(593,610)"
     style="fill: #519947;"
     id="path109" />
  <path
     d="M0 0 C-2.77579761 2.77579761 -5.30306937 2.86061387 -9.125 3.625 C-10.40632813 3.88539063 -11.68765625 4.14578125 -13.0078125 4.4140625 C-13.99523437 4.60742188 -14.98265625 4.80078125 -16 5 C-16.66 3.68 -17.32 2.36 -18 1 C-11.97403427 -0.0712828 -6.11090483 -0.09945415 0 0 Z "
     transform="translate(460,559)"
     style="fill: #5A9D50;"
     id="path111" />
  <path
     d="M0 0 C0.185625 0.8971875 0.185625 0.8971875 0.375 1.8125 C0.95475985 4.26231348 0.95475985 4.26231348 3 7 C2.37755401 8.27208622 1.75193233 9.54261882 1.125 10.8125 C0.77695312 11.52019531 0.42890625 12.22789062 0.0703125 12.95703125 C-1 15 -1 15 -3 18 C-2.51679152 11.7945858 -1.66681876 6.00054754 0 0 Z "
     transform="translate(655,458)"
     style="fill: #69AC62;"
     id="path113" />
</svg>
